PathFileType	4	(X/Y/Z)	marker.trc
DataRate	CameraRate	NumFrames	NumMarkers	Units	OrigDataRate	OrigDataStartFrame	OrigNumFrames
128	128	11	6	m	128	962	3845
Frame#	Time	US29-1	US29-2	US29-3	US30-1	US30-2	US30-3	
		X1	Y1	Z1	X2	Y2	Z2	X3	Y3	Z3	X4	Y4	Z4	X5	Y5	Z5	X6	Y6	Z6	

961	7.515625	-0.121946789324284	0.0889761075377464	0.0855870470404625	-0.0943112969398499	0.106986798346043	0.0643889829516411	-0.125162929296494	0.111541844904423	0.0877044498920441	-0.171688243746758	0.107881784439087	0.0252289362251759	-nan	-nan	-nan	-0.176276862621307	0.119020216166973	0.0478316769003868	
962	7.523437	-0.11838636547327	0.0901647210121155	0.0855139717459679	-0.0907785445451736	0.108244448900223	0.0643207877874374	-0.121660113334656	0.11269736289978	0.0875810980796814	-0.168029844760895	0.108995154500008	0.025127487257123	-0.164955943822861	0.0976280197501183	0.0484909638762474	-0.172847151756287	0.120026960968971	0.0477695465087891	
963	7.53125	-0.114552080631256	0.0913733839988708	0.0854596048593521	-0.0870281457901001	0.109559766948223	0.0642553046345711	-0.117885574698448	0.113884054124355	0.0876050069928169	-0.164359718561172	0.110024765133858	0.0251150112599134	-0.161054596304893	0.0987022891640663	0.0484495982527733	-0.169108182191849	0.121138490736485	0.0477641858160496	
964	7.539062	-0.110572516918182	0.092608742415905	0.0854217335581779	-0.083099365234375	0.110936895012856	0.0642579346895218	-0.113976985216141	0.115110412240028	0.0875757485628128	-0.160400852560997	0.111171908676624	0.0251354742795229	-0.156953871250153	0.0997748300433159	0.0484715700149536	-0.165280684828758	0.122180089354515	0.0477725192904472	
965	7.546875	-0.10638765245676	0.0939833223819733	0.0854165032505989	-0.0789453834295273	0.112328559160233	0.0642402768135071	-0.109839081764221	0.11644934117794	0.0876168385148048	-0.156265899538994	0.112269960343838	0.0251628067344427	-0.153143256902695	0.10088873654604	0.0484108179807663	-0.161128550767899	0.123279869556427	0.0478201657533646	
966	7.554687	-0.101927205920219	0.0953453704714775	0.0854353755712509	-0.0746164172887802	0.113817952573299	0.0642686188220978	-0.105483002960682	0.117808572947979	0.0876531675457954	-0.152061522006989	0.113419115543365	0.0252421665936708	-0.148705080151558	0.102043755352497	0.0485006831586361	-0.156939014792442	0.124401651322842	0.0479396134614944	
967	7.5625	-0.0972892343997955	0.0967882052063942	0.0855568796396255	-0.0701426863670349	0.115400366485119	0.064293198287487	-0.101026766002178	0.119279205799103	0.0877330005168915	-0.147643536329269	0.11465160548687	0.0253999661654234	-0.144117161631584	0.103336930274963	0.0486346818506718	-0.152441740036011	0.125585645437241	0.0480604618787766	
968	7.570312	-0.0926304087042809	0.0982919335365295	0.085579939186573	-0.0654880702495575	0.117048613727093	0.0643507614731789	-0.0964384078979492	0.120765127241611	0.0877795591950417	-0.143073245882988	0.115887127816677	0.0255358330905437	-0.139024689793587	0.10466268658638	0.0489117950201035	-0.147893890738487	0.126786977052689	0.0482408478856087	
969	7.578125	-0.0876594111323357	0.0998993590474129	0.0856906697154045	-0.0606929399073124	0.118772193789482	0.0644427761435509	-0.0915759429335594	0.122339531779289	0.087896890938282	-0.138263955712318	0.117224119603634	0.0257208086550236	-0.134609386324883	0.105882987380028	0.048965010792017	-0.143252968788147	0.128102079033852	0.0483875311911106	
970	7.585937	-0.0826091095805168	0.101574614644051	0.0858260616660118	-0.0558292083442211	0.120575904846191	0.0645117461681366	-0.086708664894104	0.124032445251942	0.0879977121949196	-0.1335708796978	0.118628896772861	0.0259401295334101	-0.129445508122444	0.107363261282444	0.0492410659790039	-0.138444423675537	0.129423797130585	0.0486046560108662	
971	7.59375	-0.0774384811520576	0.103366538882256	0.0858942866325378	-0.0508144125342369	0.122529774904251	0.0645718649029732	-0.0817023664712906	0.125769019126892	0.0881077945232391	-0.128532543778419	0.120046675205231	0.0261105895042419	-0.124536074697971	0.108882702887058	0.0494156293570995	-0.133466720581055	0.130832552909851	0.0488448850810528	
